<svg xmlns="http://www.w3.org/2000/svg" xmlns:xlink="http://www.w3.org/1999/xlink" width="82" height="23" viewBox="0 0 82 23"><defs><path id="b" d="M87.2 38.04c-1.62 0-3.56-.69-3.56-3.99V20.8c0-.5.29-.79.8-.79h1.87c.5 0 .8.29.8.8V33.9c0 1.15.28 1.5.35 1.54h.15c.5 0 .79.28.79.79v1.03c0 .51-.28.8-.8.8z"/><path id="c" d="M93.46 23.47c.52 0 .8-.29.8-.8V20.8c0-.5-.3-.79-.8-.79h-1.88c-.5 0-.79.29-.79.8v1.87c0 .5.29.8.8.8zm0 14.57c.52 0 .8-.28.8-.79V25.97c0-.52-.28-.8-.8-.8h-1.88c-.5 0-.79.3-.79.8v11.28c0 .5.29.8.8.8z"/><path id="d" d="M101.9 38.04a.99.99 0 0 1-.95-.6l-4.22-11.41c-.11-.22-.12-.43-.01-.6.1-.17.3-.26.59-.26h2.16c.47 0 .79.23.92.67l2.26 7.89 2.25-7.88c.07-.3.29-.68.92-.68H108c.36 0 .52.17.58.27.07.12.13.33-.02.62l-4.19 11.35c-.22.43-.53.63-.96.63z"/><path id="e" d="M115.18 27.8c1.7 0 2.43 1.14 2.43 3.8 0 2.65-.73 3.78-2.43 3.78-1.71 0-2.44-1.13-2.44-3.78 0-2.66.73-3.8 2.44-3.8zm0 10.22c3.86 0 5.74-2.1 5.74-6.42 0-4.27-1.93-6.44-5.74-6.44-3.87 0-5.75 2.11-5.75 6.47 0 4.3 1.88 6.4 5.75 6.4z"/><path id="f" d="M49.68 30.28c0 .3-.24.53-.53.53h-1.08a.54.54 0 0 1-.54-.53V29.2c0-.3.24-.54.54-.54h1.08c.3 0 .53.24.53.54z"/><path id="g" d="M52.74 30.28c0 .3-.24.53-.53.53h-1.08a.54.54 0 0 1-.54-.53V29.2c0-.3.24-.54.54-.54h1.08c.29 0 .53.24.53.54z"/><path id="h" d="M55.8 30.28c0 .3-.24.53-.53.53h-1.08a.54.54 0 0 1-.54-.53V29.2c0-.3.24-.54.54-.54h1.08c.3 0 .53.24.53.54z"/><path id="i" d="M49.68 33.34c0 .3-.24.53-.53.53h-1.08a.54.54 0 0 1-.54-.53v-1.08c0-.3.24-.54.54-.54h1.08c.3 0 .53.24.53.54z"/><path id="j" d="M52.74 33.34c0 .3-.24.53-.53.53h-1.08a.54.54 0 0 1-.54-.53v-1.08c0-.3.24-.54.54-.54h1.08c.29 0 .53.24.53.54z"/><path id="k" d="M55.8 33.34c0 .3-.24.53-.53.53h-1.08a.54.54 0 0 1-.54-.53v-1.08c0-.3.24-.54.54-.54h1.08c.3 0 .53.24.53.54z"/><path id="l" d="M49.68 36.4c0 .3-.24.53-.53.53h-1.08a.54.54 0 0 1-.54-.53v-1.08c0-.3.24-.54.54-.54h1.08c.3 0 .53.24.53.54z"/><path id="m" d="M52.74 36.4c0 .3-.24.53-.53.53h-1.08a.54.54 0 0 1-.54-.53v-1.08c0-.3.24-.54.54-.54h1.08c.29 0 .53.24.53.54z"/><path id="n" d="M55.8 36.4c0 .3-.24.53-.53.53h-1.08a.54.54 0 0 1-.54-.53v-1.08c0-.3.24-.54.54-.54h1.08c.3 0 .53.24.53.54z"/><path id="a" d="M39 40.97V21.94h24.58v19.03H39z"/><path id="p" d="M45.8 38.84a4.68 4.68 0 0 1-1.11-9.2l1.13-.28.38-1.1a5.93 5.93 0 0 1 11.5 1.14l.16 1.21 1.12.48a4.02 4.02 0 0 1-1.57 7.74zm6.02-16.75a8.05 8.05 0 0 0-6.88 3.88V23a1.06 1.06 0 1 0-2.13 0v5.07a6.79 6.79 0 0 0 2.99 12.9h11.62a6.15 6.15 0 0 0 2.4-11.83 8.06 8.06 0 0 0-8-7.05z"/><path id="q" d="M72.8 31.64c0-3.49 1.51-3.94 2.83-3.94 1.19 0 2.26.3 2.26 3.94 0 3.7-1.1 4.01-2.24 4.01-1.22 0-2.85-.41-2.85-4zm0-5.55v-.15c0-.48-.28-.76-.77-.76h-1.81c-.5 0-.77.27-.77.76v16.2c0 .5.28.77.77.77h1.81c.5 0 .77-.27.77-.76v-5.12a4.43 4.43 0 0 0 3.24 1.15c1.94 0 5.2-.84 5.2-6.54 0-5.63-3.22-6.47-5.13-6.47-1.34 0-2.44.31-3.31.92z"/><clipPath id="o"><use xlink:href="#a"/></clipPath></defs><use fill="#626375" xlink:href="#b" transform="translate(-39 -20)"/><use fill="#626375" xlink:href="#c" transform="translate(-39 -20)"/><use fill="#626375" xlink:href="#d" transform="translate(-39 -20)"/><use fill="#626375" xlink:href="#e" transform="translate(-39 -20)"/><use fill="#626375" xlink:href="#f" transform="translate(-39 -20)"/><use fill="#626375" xlink:href="#g" transform="translate(-39 -20)"/><use fill="#626375" xlink:href="#h" transform="translate(-39 -20)"/><use fill="#626375" xlink:href="#i" transform="translate(-39 -20)"/><use fill="#626375" xlink:href="#j" transform="translate(-39 -20)"/><use fill="#626375" xlink:href="#k" transform="translate(-39 -20)"/><use fill="#626375" xlink:href="#l" transform="translate(-39 -20)"/><use fill="#626375" xlink:href="#m" transform="translate(-39 -20)"/><use fill="#626375" xlink:href="#n" transform="translate(-39 -20)"/><g clip-path="url(#o)" transform="translate(-39 -20)"><use fill="#2bb031" xlink:href="#p"/></g><use fill="#626375" xlink:href="#q" transform="translate(-39 -20)"/></svg>